<svg xmlns="http://www.w3.org/2000/svg" viewBox="0 0 900 680" width="900" height="680">

  <!-- ═══ SHARED DEFS ═══ -->
  <defs>

    <!-- Clip shapes (all in 1000×1000 sticker space) -->
    <clipPath id="cl-rounded">
      <rect x="30" y="30" width="940" height="940" rx="80" ry="80"/>
    </clipPath>
    <clipPath id="cl-circle">
      <circle cx="500" cy="500" r="468"/>
    </clipPath>
    <clipPath id="cl-blob">
      <path d="M 500 60 C 680 30 900 120 940 300 C 980 480 900 700 740 820
               C 580 940 340 960 180 860 C 20 760 20 560 50 380
               C 80 200 320 90 500 60 Z"/>
    </clipPath>

    <!-- Watercolor blur filters -->
    <filter id="wc90"  x="-30%" y="-30%" width="160%" height="160%"><feGaussianBlur stdDeviation="34"/></filter>
    <filter id="wc95"  x="-30%" y="-30%" width="160%" height="160%"><feGaussianBlur stdDeviation="36"/></filter>
    <filter id="wc85"  x="-30%" y="-30%" width="160%" height="160%"><feGaussianBlur stdDeviation="32"/></filter>
    <filter id="wc88"  x="-30%" y="-30%" width="160%" height="160%"><feGaussianBlur stdDeviation="33"/></filter>

    <!-- ── Watercolor gradient definitions ── -->
    <!-- BL-001 washes -->
    <radialGradient id="w1a" cx="24%" cy="22%" r="62%" gradientUnits="objectBoundingBox">
      <stop offset="0%"   stop-color="#FF5A3D" stop-opacity="0.54"/>
      <stop offset="55%"  stop-color="#FF5A3D" stop-opacity="0.22"/>
      <stop offset="100%" stop-color="#FF5A3D" stop-opacity="0"/>
    </radialGradient>
    <radialGradient id="w1b" cx="76%" cy="74%" r="50%" gradientUnits="objectBoundingBox">
      <stop offset="0%"   stop-color="#6FA8FF" stop-opacity="0.38"/>
      <stop offset="100%" stop-color="#6FA8FF" stop-opacity="0"/>
    </radialGradient>
    <radialGradient id="w1c" cx="14%" cy="80%" r="42%" gradientUnits="objectBoundingBox">
      <stop offset="0%"   stop-color="#EAE5D9" stop-opacity="0.80"/>
      <stop offset="100%" stop-color="#EAE5D9" stop-opacity="0"/>
    </radialGradient>

    <!-- BL-002 washes -->
    <radialGradient id="w2a" cx="50%" cy="20%" r="58%" gradientUnits="objectBoundingBox">
      <stop offset="0%"   stop-color="#FF5A3D" stop-opacity="0.56"/>
      <stop offset="55%"  stop-color="#FF5A3D" stop-opacity="0.24"/>
      <stop offset="100%" stop-color="#FF5A3D" stop-opacity="0"/>
    </radialGradient>
    <radialGradient id="w2b" cx="48%" cy="72%" r="55%" gradientUnits="objectBoundingBox">
      <stop offset="0%"   stop-color="#EAE5D9" stop-opacity="0.82"/>
      <stop offset="100%" stop-color="#EAE5D9" stop-opacity="0"/>
    </radialGradient>
    <radialGradient id="w2c" cx="82%" cy="18%" r="35%" gradientUnits="objectBoundingBox">
      <stop offset="0%"   stop-color="#6FA8FF" stop-opacity="0.34"/>
      <stop offset="100%" stop-color="#6FA8FF" stop-opacity="0"/>
    </radialGradient>

    <!-- BL-003 washes -->
    <radialGradient id="w3a" cx="20%" cy="40%" r="58%" gradientUnits="objectBoundingBox">
      <stop offset="0%"   stop-color="#6FA8FF" stop-opacity="0.42"/>
      <stop offset="55%"  stop-color="#6FA8FF" stop-opacity="0.16"/>
      <stop offset="100%" stop-color="#6FA8FF" stop-opacity="0"/>
    </radialGradient>
    <radialGradient id="w3b" cx="55%" cy="76%" r="52%" gradientUnits="objectBoundingBox">
      <stop offset="0%"   stop-color="#EAE5D9" stop-opacity="0.78"/>
      <stop offset="100%" stop-color="#EAE5D9" stop-opacity="0"/>
    </radialGradient>
    <radialGradient id="w3c" cx="72%" cy="22%" r="36%" gradientUnits="objectBoundingBox">
      <stop offset="0%"   stop-color="#FF5A3D" stop-opacity="0.36"/>
      <stop offset="100%" stop-color="#FF5A3D" stop-opacity="0"/>
    </radialGradient>

    <!-- BL-004 washes -->
    <radialGradient id="w4a" cx="22%" cy="24%" r="64%" gradientUnits="objectBoundingBox">
      <stop offset="0%"   stop-color="#FF5A3D" stop-opacity="0.56"/>
      <stop offset="50%"  stop-color="#FF5A3D" stop-opacity="0.24"/>
      <stop offset="100%" stop-color="#FF5A3D" stop-opacity="0"/>
    </radialGradient>
    <radialGradient id="w4b" cx="78%" cy="72%" r="48%" gradientUnits="objectBoundingBox">
      <stop offset="0%"   stop-color="#6FA8FF" stop-opacity="0.38"/>
      <stop offset="100%" stop-color="#6FA8FF" stop-opacity="0"/>
    </radialGradient>
    <radialGradient id="w4c" cx="50%" cy="88%" r="44%" gradientUnits="objectBoundingBox">
      <stop offset="0%"   stop-color="#EAE5D9" stop-opacity="0.72"/>
      <stop offset="100%" stop-color="#EAE5D9" stop-opacity="0"/>
    </radialGradient>

    <!-- BL-005 washes -->
    <radialGradient id="w5a" cx="48%" cy="46%" r="72%" gradientUnits="objectBoundingBox">
      <stop offset="0%"   stop-color="#EAE5D9" stop-opacity="0.86"/>
      <stop offset="70%"  stop-color="#EAE5D9" stop-opacity="0.38"/>
      <stop offset="100%" stop-color="#EAE5D9" stop-opacity="0"/>
    </radialGradient>
    <radialGradient id="w5b" cx="78%" cy="80%" r="42%" gradientUnits="objectBoundingBox">
      <stop offset="0%"   stop-color="#FF5A3D" stop-opacity="0.44"/>
      <stop offset="100%" stop-color="#FF5A3D" stop-opacity="0"/>
    </radialGradient>
    <radialGradient id="w5c" cx="14%" cy="18%" r="32%" gradientUnits="objectBoundingBox">
      <stop offset="0%"   stop-color="#6FA8FF" stop-opacity="0.28"/>
      <stop offset="100%" stop-color="#6FA8FF" stop-opacity="0"/>
    </radialGradient>

    <!-- BL-006 washes -->
    <radialGradient id="w6a" cx="72%" cy="22%" r="56%" gradientUnits="objectBoundingBox">
      <stop offset="0%"   stop-color="#FF5A3D" stop-opacity="0.52"/>
      <stop offset="55%"  stop-color="#FF5A3D" stop-opacity="0.20"/>
      <stop offset="100%" stop-color="#FF5A3D" stop-opacity="0"/>
    </radialGradient>
    <radialGradient id="w6b" cx="22%" cy="58%" r="48%" gradientUnits="objectBoundingBox">
      <stop offset="0%"   stop-color="#6FA8FF" stop-opacity="0.38"/>
      <stop offset="100%" stop-color="#6FA8FF" stop-opacity="0"/>
    </radialGradient>
    <radialGradient id="w6c" cx="46%" cy="82%" r="44%" gradientUnits="objectBoundingBox">
      <stop offset="0%"   stop-color="#EAE5D9" stop-opacity="0.74"/>
      <stop offset="100%" stop-color="#EAE5D9" stop-opacity="0"/>
    </radialGradient>

  </defs>

  <!-- ═══ GRID BACKGROUND ═══ -->
  <rect width="900" height="680" fill="#E8E3D8"/>
  <text x="450" y="660" font-family="Georgia,serif" font-size="11" font-style="italic"
        fill="#8B7A5C" text-anchor="middle" letter-spacing="1">
    Bloom Lines — all 6 presets — design review render
  </text>

  <!-- ══════════════════════════════════════
       STICKER 1: "love, always"  (col 0, row 0)
       ══════════════════════════════════════ -->
  <svg viewBox="0 0 1000 1000" width="260" height="260" x="20" y="20">
    <g clip-path="url(#cl-rounded)">
      <rect width="1000" height="1000" fill="#F4F1EA"/>
      <rect width="1000" height="1000" fill="url(#w1a)" filter="url(#wc90)"/>
      <rect width="1000" height="1000" fill="url(#w1b)" filter="url(#wc90)"/>
      <rect width="1000" height="1000" fill="url(#w1c)" filter="url(#wc90)"/>
      <!-- Sprig illustration: centered at (828,748), rotated 12° -->
      <g transform="translate(828,748) rotate(12)"
         stroke="#0E0E10" stroke-linecap="round" stroke-linejoin="round" fill="none" opacity="0.50">
        <path d="M 0 130 C -2 100 2 70 0 34 C -2 4 2 -28 0 -64 C -1 -88 1 -108 0 -130" stroke-width="7"/>
        <path d="M 0 70  C -18 62 -40 52 -58 42" stroke-width="5.5"/>
        <path d="M 0 70  C 18 62 40 52 58 42" stroke-width="5.5"/>
        <path d="M 0 0   C -18 -8 -40 -18 -58 -28" stroke-width="5"/>
        <path d="M 0 0   C 18 -8 40 -18 58 -28" stroke-width="5"/>
        <path d="M 0 -72 C -14 -82 -30 -92 -44 -102" stroke-width="4.5"/>
        <path d="M 0 -72 C 14 -82 30 -92 44 -102" stroke-width="4.5"/>
      </g>
      <!-- Text: "love," -->
      <text x="378" y="415" font-family="Fraunces,Georgia,serif" font-size="190"
            font-weight="600" font-style="italic" fill="#0E0E10"
            text-anchor="middle" letter-spacing="-4" transform="rotate(-2,378,415)">love,</text>
      <!-- Text: "always." -->
      <text x="358" y="580" font-family="Fraunces,Georgia,serif" font-size="124"
            font-weight="400" font-style="italic" fill="#2B1B4A"
            text-anchor="middle" letter-spacing="-1">always.</text>
    </g>
    <rect x="30" y="30" width="940" height="940" rx="80" fill="none" stroke="#0E0E10" stroke-width="6" opacity="0.55"/>
  </svg>
  <text x="150" y="293" font-family="Georgia,serif" font-size="11" font-style="italic"
        fill="#5C4E34" text-anchor="middle">love, always</text>

  <!-- ══════════════════════════════════════
       STICKER 2: "mama bloom"  (col 1, row 0)
       ══════════════════════════════════════ -->
  <svg viewBox="0 0 1000 1000" width="260" height="260" x="320" y="20">
    <g clip-path="url(#cl-circle)">
      <rect width="1000" height="1000" fill="#F4F1EA"/>
      <rect width="1000" height="1000" fill="url(#w2a)" filter="url(#wc95)"/>
      <rect width="1000" height="1000" fill="url(#w2b)" filter="url(#wc95)"/>
      <rect width="1000" height="1000" fill="url(#w2c)" filter="url(#wc95)"/>
      <!-- Bloom illustration: centered at (500,752) -->
      <g transform="translate(500,752)"
         stroke="#0E0E10" stroke-linecap="round" stroke-linejoin="round" fill="none" opacity="0.52">
        <!-- 6 petals rotating around origin -->
        <g transform="rotate(0)">
          <path d="M 0 0 C -14 -28 -16 -58 0 -88 C 16 -58 14 -28 0 0" stroke-width="6"/>
        </g>
        <g transform="rotate(60)">
          <path d="M 0 0 C -14 -28 -16 -58 0 -88 C 16 -58 14 -28 0 0" stroke-width="6"/>
        </g>
        <g transform="rotate(120)">
          <path d="M 0 0 C -14 -28 -16 -58 0 -88 C 16 -58 14 -28 0 0" stroke-width="6"/>
        </g>
        <g transform="rotate(180)">
          <path d="M 0 0 C -14 -28 -16 -58 0 -88 C 16 -58 14 -28 0 0" stroke-width="6"/>
        </g>
        <g transform="rotate(240)">
          <path d="M 0 0 C -14 -28 -16 -58 0 -88 C 16 -58 14 -28 0 0" stroke-width="6"/>
        </g>
        <g transform="rotate(300)">
          <path d="M 0 0 C -14 -28 -16 -58 0 -88 C 16 -58 14 -28 0 0" stroke-width="6"/>
        </g>
        <circle cx="0" cy="0" r="16" stroke-width="5"/>
        <!-- Short stem below bloom -->
        <path d="M 0 16 C 0 40 -4 64 0 90" stroke-width="6"/>
        <path d="M 0 56 C -16 48 -34 42 -48 36" stroke-width="5"/>
        <path d="M 0 56 C 16 48 34 42 48 36" stroke-width="5"/>
      </g>
      <!-- Text: "mama" -->
      <text x="500" y="345" font-family="Fraunces,Georgia,serif" font-size="158"
            font-weight="600" font-style="italic" fill="#0E0E10"
            text-anchor="middle" letter-spacing="-3">mama</text>
      <!-- Text: "bloom." -->
      <text x="500" y="505" font-family="Fraunces,Georgia,serif" font-size="128"
            font-weight="800" font-style="italic" fill="#2B1B4A"
            text-anchor="middle" letter-spacing="-2">bloom.</text>
    </g>
  </svg>
  <text x="450" y="293" font-family="Georgia,serif" font-size="11" font-style="italic"
        fill="#5C4E34" text-anchor="middle">mama bloom</text>

  <!-- ══════════════════════════════════════
       STICKER 3: "the first hello"  (col 2, row 0)
       ══════════════════════════════════════ -->
  <svg viewBox="0 0 1000 1000" width="260" height="260" x="620" y="20">
    <g clip-path="url(#cl-rounded)">
      <rect width="1000" height="1000" fill="#F4F1EA"/>
      <rect width="1000" height="1000" fill="url(#w3a)" filter="url(#wc85)"/>
      <rect width="1000" height="1000" fill="url(#w3b)" filter="url(#wc85)"/>
      <rect width="1000" height="1000" fill="url(#w3c)" filter="url(#wc85)"/>
      <!-- Profile illustration: right side, scaled 2× from 400-space, offset (286,117) -->
      <g transform="translate(286,117) scale(2.0)"
         stroke="#0E0E10" stroke-linecap="round" stroke-linejoin="round" fill="none" opacity="0.58">
        <!-- Main face contour -->
        <path d="M 222 72
                 C 234 82 244 104 244 128
                 C 244 144 240 154 250 170
                 C 256 182 266 192 262 206
                 C 258 218 246 224 246 236
                 C 246 248 256 258 252 272
                 C 248 286 234 296 218 298
                 C 202 300 186 294 178 284"
              stroke-width="3.5"/>
        <!-- Lower jaw -->
        <path d="M 178 284
                 C 173 278 172 268 176 262
                 C 180 256 188 257 190 264"
              stroke-width="3"/>
        <!-- Neck -->
        <path d="M 206 300 C 204 316 202 330 204 346" stroke-width="3"/>
        <!-- Collar -->
        <path d="M 204 346 C 190 350 172 354 156 360" stroke-width="2.5"/>
        <path d="M 204 346 C 218 350 236 354 250 360" stroke-width="2.5"/>
        <!-- Ear -->
        <path d="M 244 148 C 254 152 260 164 256 176 C 253 184 248 186 244 184" stroke-width="2.5"/>
        <!-- Eye arc -->
        <path d="M 236 124 C 240 120 248 120 252 126" stroke-width="2.5"/>
        <!-- Eyebrow -->
        <path d="M 232 112 C 238 108 248 108 254 112" stroke-width="2"/>
      </g>
      <!-- Text: "the first" -->
      <text x="310" y="365" font-family="Fraunces,Georgia,serif" font-size="90"
            font-weight="400" font-style="italic" fill="#0E0E10"
            text-anchor="middle" letter-spacing="1">the first</text>
      <!-- Text: "hello." -->
      <text x="290" y="565" font-family="Fraunces,Georgia,serif" font-size="184"
            font-weight="800" font-style="italic" fill="#0E0E10"
            text-anchor="middle" letter-spacing="-4">hello.</text>
    </g>
    <rect x="30" y="30" width="940" height="940" rx="80" fill="none" stroke="#0E0E10" stroke-width="6" opacity="0.55"/>
  </svg>
  <text x="750" y="293" font-family="Georgia,serif" font-size="11" font-style="italic"
        fill="#5C4E34" text-anchor="middle">the first hello</text>

  <!-- ══════════════════════════════════════
       STICKER 4: "for you, mom"  (col 0, row 1)
       ══════════════════════════════════════ -->
  <svg viewBox="0 0 1000 1000" width="260" height="260" x="20" y="340">
    <g clip-path="url(#cl-circle)">
      <rect width="1000" height="1000" fill="#F4F1EA"/>
      <rect width="1000" height="1000" fill="url(#w4a)" filter="url(#wc92)"/>
      <rect width="1000" height="1000" fill="url(#w4b)" filter="url(#wc90)"/>
      <rect width="1000" height="1000" fill="url(#w4c)" filter="url(#wc90)"/>
      <!-- Branch illustration: direct 1000-space paths low in circle -->
      <g stroke="#0E0E10" stroke-linecap="round" stroke-linejoin="round" fill="none" opacity="0.48">
        <!-- Main stem, low -->
        <path d="M 200 800 C 300 784 400 768 500 760 C 600 752 700 744 820 734" stroke-width="8"/>
        <!-- Upper leaves -->
        <path d="M 318 786 C 314 766 318 746 330 732" stroke-width="6"/>
        <path d="M 488 764 C 484 744 488 724 500 710" stroke-width="6"/>
        <path d="M 658 746 C 654 726 658 706 670 692" stroke-width="6"/>
        <!-- Lower shoots -->
        <path d="M 278 792 C 272 810 268 828 270 846" stroke-width="5"/>
        <path d="M 450 768 C 444 786 440 804 442 820" stroke-width="5"/>
        <path d="M 618 752 C 612 770 608 788 610 806" stroke-width="5"/>
      </g>
      <!-- Text: "for you," -->
      <text x="500" y="368" font-family="Fraunces,Georgia,serif" font-size="140"
            font-weight="600" font-style="italic" fill="#0E0E10"
            text-anchor="middle" letter-spacing="-2">for you,</text>
      <!-- Text: "mom." -->
      <text x="500" y="560" font-family="Fraunces,Georgia,serif" font-size="200"
            font-weight="800" font-style="italic" fill="#0E0E10"
            text-anchor="middle" letter-spacing="-4">mom.</text>
    </g>
  </svg>
  <text x="150" y="613" font-family="Georgia,serif" font-size="11" font-style="italic"
        fill="#5C4E34" text-anchor="middle">for you, mom</text>

  <!-- ══════════════════════════════════════
       STICKER 5: "softest landing"  (col 1, row 1)
       ══════════════════════════════════════ -->
  <svg viewBox="0 0 1000 1000" width="260" height="260" x="320" y="340">
    <g clip-path="url(#cl-blob)">
      <rect width="1000" height="1000" fill="#F4F1EA"/>
      <rect width="1000" height="1000" fill="url(#w5a)" filter="url(#wc88)"/>
      <rect width="1000" height="1000" fill="url(#w5b)" filter="url(#wc88)"/>
      <rect width="1000" height="1000" fill="url(#w5c)" filter="url(#wc88)"/>
      <!-- Leaf cluster: centered paths at origin, then translate+scale -->
      <g transform="translate(215,268) rotate(-8) scale(1.6)"
         stroke="#0E0E10" stroke-linecap="round" stroke-linejoin="round" fill="none" opacity="0.52">
        <!-- paths in 0-100 space centered at (50,50) -->
        <!-- Center leaf -->
        <path d="M 50 85 C 44 72 40 56 44 40 C 47 28 52 20 50 12
                 C 48 20 53 28 56 40 C 60 56 56 72 50 85" stroke-width="2.8"/>
        <!-- Left leaf -->
        <path d="M 32 82 C 24 70 22 54 28 38
                 C 32 26 40 18 44 16
                 C 40 26 34 42 32 82" stroke-width="2.2"/>
        <!-- Right leaf -->
        <path d="M 68 82 C 76 70 78 54 72 38
                 C 68 26 60 18 56 16
                 C 60 26 66 42 68 82" stroke-width="2.2"/>
      </g>
      <!-- Small bud: lower-right accent -->
      <g transform="translate(820,740) rotate(14) scale(1.2)"
         stroke="#0E0E10" stroke-linecap="round" stroke-linejoin="round" fill="none" opacity="0.40">
        <path d="M 0 60 C -1 44 1 28 0 8" stroke-width="2.5"/>
        <path d="M 0 8 C -6 -2 -10 -14 -6 -22 C -4 -28 0 -32 0 -32
                 C 0 -32 4 -28 6 -22 C 10 -14 6 -2 0 8" stroke-width="2"/>
        <path d="M 0 8 C 8 2 14 -6 18 -16" stroke-width="1.8"/>
        <path d="M 0 8 C -8 2 -14 -6 -18 -16" stroke-width="1.8"/>
      </g>
      <!-- Text: "softest" -->
      <text x="592" y="432" font-family="Fraunces,Georgia,serif" font-size="148"
            font-weight="600" font-style="italic" fill="#0E0E10"
            text-anchor="middle" letter-spacing="-3">softest</text>
      <!-- Text: "landing." -->
      <text x="578" y="578" font-family="Fraunces,Georgia,serif" font-size="108"
            font-weight="400" font-style="italic" fill="#2B1B4A"
            text-anchor="middle" letter-spacing="-1">landing.</text>
    </g>
  </svg>
  <text x="450" y="613" font-family="Georgia,serif" font-size="11" font-style="italic"
        fill="#5C4E34" text-anchor="middle">softest landing</text>

  <!-- ══════════════════════════════════════
       STICKER 6: "held."  (col 2, row 1)
       ══════════════════════════════════════ -->
  <svg viewBox="0 0 1000 1000" width="260" height="260" x="620" y="340">
    <g clip-path="url(#cl-circle)">
      <rect width="1000" height="1000" fill="#F4F1EA"/>
      <rect width="1000" height="1000" fill="url(#w6a)" filter="url(#wc88)"/>
      <rect width="1000" height="1000" fill="url(#w6b)" filter="url(#wc88)"/>
      <rect width="1000" height="1000" fill="url(#w6c)" filter="url(#wc88)"/>
      <!-- Heart-line: centered at (500,742), scale 2.6 from 0-100 (centered at 50,46) -->
      <g transform="translate(500,742) scale(2.6)"
         stroke="#0E0E10" stroke-linecap="round" stroke-linejoin="round" fill="none" opacity="0.55">
        <!-- heart in 0-100 space, shifted so (50,46) → origin -->
        <path d="M 0 34
                 C -20 22 -40 8 -40 -8
                 C -40 -24 -28 -34 -16 -32
                 C -10 -31 -4 -26 0 -20
                 C 4 -26 10 -31 16 -32
                 C 28 -34 40 -24 40 -8
                 C 40 8 20 22 0 34" stroke-width="2.5"/>
      </g>
      <!-- Text: "held." -->
      <text x="500" y="480" font-family="Fraunces,Georgia,serif" font-size="258"
            font-weight="800" font-style="italic" fill="#0E0E10"
            text-anchor="middle" letter-spacing="-6">held.</text>
    </g>
  </svg>
  <text x="750" y="613" font-family="Georgia,serif" font-size="11" font-style="italic"
        fill="#5C4E34" text-anchor="middle">held.</text>

</svg>
